<svg width="174" height="48" viewBox="0 0 174 48" fill="none" xmlns="http://www.w3.org/2000/svg">
<path d="M46.5 39.3977C44.1326 39.3977 42.1061 38.929 40.4205 37.9915C38.7348 37.0445 37.4422 35.7282 36.5426 34.0426C35.643 32.3475 35.1932 30.3826 35.1932 28.1477C35.1932 25.9129 35.643 23.9527 36.5426 22.267C37.4422 20.572 38.7348 19.2557 40.4205 18.3182C42.1061 17.3712 44.1326 16.8977 46.5 16.8977C48.6402 16.8977 50.4915 17.286 52.054 18.0625C53.6259 18.8295 54.8428 19.9186 55.7045 21.3295C56.5663 22.7311 57.0019 24.3788 57.0114 26.2727H49.7386C49.6345 25.1269 49.303 24.2557 48.7443 23.6591C48.1951 23.053 47.4848 22.75 46.6136 22.75C45.9318 22.75 45.3352 22.9489 44.8239 23.3466C44.3125 23.7348 43.9148 24.3267 43.6307 25.1222C43.3466 25.9081 43.2045 26.8977 43.2045 28.0909C43.2045 29.2841 43.3466 30.2784 43.6307 31.0739C43.9148 31.8598 44.3125 32.4517 44.8239 32.8494C45.3352 33.2377 45.9318 33.4318 46.6136 33.4318C47.1913 33.4318 47.7027 33.2992 48.1477 33.0341C48.5928 32.7595 48.9527 32.3617 49.2273 31.8409C49.5114 31.3106 49.6818 30.6667 49.7386 29.9091H57.0114C56.983 31.8314 56.5426 33.5076 55.6903 34.9375C54.8381 36.358 53.6307 37.4564 52.0682 38.233C50.5152 39.0095 48.6591 39.3977 46.5 39.3977ZM68.0874 26.7273V39H60.2464V9.90909H67.8033V21.3295H68.0305C68.523 19.9375 69.3421 18.8532 70.4879 18.0767C71.6338 17.2907 73.0116 16.8977 74.6214 16.8977C76.165 16.8977 77.505 17.2481 78.6413 17.9489C79.7872 18.6496 80.6726 19.6155 81.2976 20.8466C81.9321 22.0777 82.2446 23.4886 82.2351 25.0795V39H74.3942V26.7273C74.4036 25.6477 74.1338 24.8002 73.5845 24.1847C73.0447 23.5691 72.273 23.2614 71.2692 23.2614C70.6347 23.2614 70.076 23.4034 69.593 23.6875C69.1196 23.9621 68.7502 24.3598 68.4851 24.8807C68.2294 25.392 68.0968 26.0076 68.0874 26.7273ZM96.6172 39.3977C94.2498 39.3977 92.2232 38.929 90.5376 37.9915C88.852 37.0445 87.5594 35.7282 86.6598 34.0426C85.7602 32.3475 85.3104 30.3826 85.3104 28.1477C85.3104 25.9129 85.7602 23.9527 86.6598 22.267C87.5594 20.572 88.852 19.2557 90.5376 18.3182C92.2232 17.3712 94.2498 16.8977 96.6172 16.8977C98.9846 16.8977 101.011 17.3712 102.697 18.3182C104.382 19.2557 105.675 20.572 106.575 22.267C107.474 23.9527 107.924 25.9129 107.924 28.1477C107.924 30.3826 107.474 32.3475 106.575 34.0426C105.675 35.7282 104.382 37.0445 102.697 37.9915C101.011 38.929 98.9846 39.3977 96.6172 39.3977ZM96.674 33.6023C97.3369 33.6023 97.9098 33.3797 98.3928 32.9347C98.8757 32.4896 99.2498 31.8551 99.5149 31.0312C99.7801 30.2074 99.9126 29.2273 99.9126 28.0909C99.9126 26.9451 99.7801 25.965 99.5149 25.1506C99.2498 24.3267 98.8757 23.6922 98.3928 23.2472C97.9098 22.8021 97.3369 22.5795 96.674 22.5795C95.9732 22.5795 95.3719 22.8021 94.87 23.2472C94.3681 23.6922 93.9846 24.3267 93.7195 25.1506C93.4543 25.965 93.3217 26.9451 93.3217 28.0909C93.3217 29.2273 93.4543 30.2074 93.7195 31.0312C93.9846 31.8551 94.3681 32.4896 94.87 32.9347C95.3719 33.3797 95.9732 33.6023 96.674 33.6023Z" fill="#B91C1C"/>
<path d="M111.106 39V17.1818H118.719V21.3295H118.947C119.344 19.7955 119.974 18.6733 120.836 17.9631C121.707 17.2528 122.725 16.8977 123.89 16.8977C124.231 16.8977 124.567 16.9261 124.898 16.983C125.239 17.0303 125.566 17.1013 125.879 17.196V23.8864C125.49 23.7538 125.012 23.6544 124.444 23.5881C123.876 23.5218 123.388 23.4886 122.981 23.4886C122.214 23.4886 121.522 23.6638 120.907 24.0142C120.301 24.3551 119.823 24.8381 119.472 25.4631C119.122 26.0786 118.947 26.803 118.947 27.6364V39H111.106ZM137.654 39.3977C135.325 39.3977 133.317 38.9527 131.631 38.0625C129.955 37.1629 128.663 35.875 127.754 34.1989C126.854 32.5133 126.404 30.4962 126.404 28.1477C126.404 25.8939 126.859 23.9242 127.768 22.2386C128.677 20.553 129.96 19.2415 131.617 18.304C133.274 17.3665 135.23 16.8977 137.484 16.8977C139.131 16.8977 140.623 17.1534 141.958 17.6648C143.293 18.1761 144.434 18.9195 145.381 19.8949C146.328 20.8608 147.058 22.035 147.569 23.4176C148.08 24.8002 148.336 26.358 148.336 28.0909V29.9091H128.847V25.5909H141.12C141.111 24.9659 140.95 24.4167 140.637 23.9432C140.334 23.4602 139.922 23.0862 139.401 22.821C138.89 22.5464 138.308 22.4091 137.654 22.4091C137.02 22.4091 136.437 22.5464 135.907 22.821C135.377 23.0862 134.951 23.4555 134.629 23.929C134.316 24.4025 134.15 24.9564 134.131 25.5909V30.25C134.131 30.9508 134.278 31.5758 134.572 32.125C134.865 32.6742 135.287 33.1051 135.836 33.4176C136.385 33.7301 137.048 33.8864 137.825 33.8864C138.364 33.8864 138.857 33.8106 139.302 33.6591C139.756 33.5076 140.145 33.2898 140.467 33.0057C140.789 32.7121 141.025 32.3617 141.177 31.9545H148.336C148.09 33.4697 147.507 34.786 146.589 35.9034C145.67 37.0114 144.453 37.8731 142.938 38.4886C141.433 39.0947 139.671 39.3977 137.654 39.3977ZM171.479 24.2841H164.263C164.225 23.839 164.069 23.4555 163.794 23.1335C163.519 22.8116 163.164 22.5653 162.729 22.3949C162.303 22.215 161.829 22.125 161.308 22.125C160.636 22.125 160.058 22.2481 159.575 22.4943C159.092 22.7405 158.856 23.0909 158.865 23.5455C158.856 23.8674 158.993 24.1657 159.277 24.4403C159.571 24.715 160.134 24.928 160.967 25.0795L165.399 25.875C167.634 26.2822 169.296 26.9687 170.385 27.9347C171.483 28.8911 172.037 30.1742 172.047 31.7841C172.037 33.3371 171.573 34.6866 170.655 35.8324C169.746 36.9687 168.5 37.8494 166.919 38.4744C165.347 39.09 163.553 39.3977 161.536 39.3977C158.202 39.3977 155.593 38.7159 153.709 37.3523C151.834 35.9886 150.787 34.1894 150.57 31.9545H158.354C158.458 32.6458 158.799 33.1809 159.376 33.5597C159.964 33.929 160.702 34.1136 161.592 34.1136C162.312 34.1136 162.904 33.9905 163.368 33.7443C163.841 33.4981 164.083 33.1477 164.092 32.6932C164.083 32.2765 163.875 31.9451 163.467 31.6989C163.07 31.4527 162.445 31.2538 161.592 31.1023L157.729 30.4205C155.503 30.0322 153.837 29.2936 152.729 28.2045C151.621 27.1155 151.071 25.714 151.081 24C151.071 22.4848 151.469 21.2017 152.274 20.1506C153.089 19.09 154.249 18.285 155.754 17.7358C157.269 17.1771 159.064 16.8977 161.138 16.8977C164.291 16.8977 166.777 17.5511 168.595 18.858C170.423 20.1648 171.384 21.9735 171.479 24.2841Z" fill="#F97316"/>
<g clip-path="url(#clip0_4130_509)">
<path d="M11.0215 12.933C14.1472 16.9011 15.8158 21.7944 15.7553 26.8155V28.0141L16.7865 28.6416C18.119 29.4482 19.1127 30.6993 19.5866 32.1669C19.1705 31.8605 18.7352 31.5803 18.2833 31.3278L15.5333 29.7838L15.0391 32.9001C14.9963 33.1755 14.9389 33.4485 14.8672 33.718H7.16151C7.04692 33.3655 6.95382 33.0129 6.86789 32.6463L6.24484 29.8261L3.70968 31.2362C3.28615 31.473 2.87723 31.7344 2.48507 32.0188C2.96824 30.5682 3.94123 29.3242 5.24224 28.4935L6.22336 27.866V26.7521C6.24106 21.7513 7.92967 16.8952 11.0287 12.933H11.0215ZM11.0287 10C10.868 10.0004 10.7128 10.058 10.5918 10.1622L10.5274 10.2186C6.39778 14.7656 4.10466 20.6454 4.08208 26.745C2.32967 27.8643 1.03251 29.5543 0.417263 31.5197C-0.197979 33.485 -0.0921719 35.6007 0.716194 37.4971C1.56776 35.6455 2.99131 34.1058 4.7839 33.0975C4.96368 33.8642 5.2031 34.6161 5.50005 35.3467C5.53771 35.4871 5.62118 35.6114 5.73763 35.7006C5.85408 35.7898 5.99706 35.8388 6.14458 35.8402H16.0847C16.2852 35.8402 16.4857 35.6498 16.586 35.3537C16.8758 34.6592 17.0778 33.9322 17.1875 33.1892C18.9836 34.1932 20.4083 35.7342 21.2553 37.5887C22.1124 35.7017 22.2451 33.5727 21.6287 31.5967C21.0124 29.6206 19.6888 27.9319 17.9037 26.8437C17.9745 20.7082 15.6935 14.7718 11.5157 10.2186C11.4535 10.1501 11.3773 10.0952 11.2922 10.0576C11.2071 10.0199 11.1149 10.0003 11.0215 10H11.0287Z" fill="#B91C1C"/>
<path d="M11.0216 26.1598C10.4715 26.1598 9.93376 25.9995 9.47611 25.699C9.01846 25.3986 8.6614 24.9715 8.44993 24.4716C8.23847 23.9716 8.18206 23.4213 8.28782 22.8898C8.39358 22.3584 8.65678 21.8697 9.04423 21.4853C9.43169 21.1009 9.92606 20.838 10.465 20.7298C11.004 20.6216 11.5634 20.6729 12.0728 20.8773C12.5822 21.0816 13.0188 21.4298 13.3275 21.8781C13.6361 22.3263 13.8031 22.8545 13.8074 23.396V23.396C13.8159 23.7469 13.7542 24.0961 13.6256 24.4235C13.4971 24.751 13.3043 25.0503 13.0582 25.3043C12.8121 25.5583 12.5176 25.7622 12.1915 25.9041C11.8654 26.0461 11.5141 26.1234 11.1576 26.1316C11.1126 26.1387 11.0666 26.1387 11.0216 26.1316V26.1598Z" fill="#B91C1C"/>
<path d="M14.8959 37.5958C14.7167 37.5901 14.5382 37.6198 14.3708 37.683C14.2034 37.7462 14.0505 37.8416 13.9211 37.9638C13.7917 38.086 13.6884 38.2323 13.6172 38.3943C13.546 38.5563 13.5084 38.7307 13.5066 38.9072V43.067C13.5066 43.4297 13.653 43.7776 13.9135 44.0342C14.1741 44.2907 14.5274 44.4348 14.8959 44.4348C15.2644 44.4348 15.6178 44.2907 15.8783 44.0342C16.1389 43.7776 16.2852 43.4297 16.2852 43.067V38.9636C16.291 38.7877 16.2611 38.6126 16.1973 38.4482C16.1336 38.2839 16.0372 38.1337 15.9139 38.0064C15.7906 37.879 15.6428 37.7772 15.4791 37.7067C15.3154 37.6362 15.139 37.5985 14.9604 37.5958H14.8959Z" fill="#F97316"/>
<path d="M7.16154 37.5957C6.97931 37.5863 6.797 37.6129 6.62546 37.6742C6.45392 37.7355 6.29665 37.8302 6.16302 37.9525C6.02939 38.0749 5.92213 38.2224 5.84761 38.3864C5.77309 38.5504 5.73284 38.7275 5.72925 38.9071V43.067C5.72925 43.4297 5.87562 43.7776 6.13617 44.0341C6.39672 44.2906 6.7501 44.4348 7.11857 44.4348C7.48704 44.4348 7.84042 44.2906 8.10097 44.0341C8.36152 43.7776 8.50789 43.4297 8.50789 43.067V38.9635C8.51362 38.7877 8.48373 38.6125 8.41998 38.4482C8.35623 38.2838 8.25989 38.1336 8.13658 38.0063C8.01326 37.879 7.86544 37.7771 7.70173 37.7067C7.53802 37.6362 7.36169 37.5985 7.18302 37.5957H7.16154Z" fill="#F97316"/>
<path d="M10.9213 37.5958C10.7426 37.592 10.5649 37.623 10.3984 37.6869C10.2318 37.7507 10.0797 37.8463 9.95068 37.9681C9.82167 38.0899 9.71828 38.2355 9.64644 38.3966C9.5746 38.5577 9.5357 38.7312 9.53198 38.9072V44.6392C9.53198 45.002 9.67836 45.3499 9.93891 45.6064C10.1995 45.8629 10.5528 46.007 10.9213 46.007C11.2898 46.007 11.6432 45.8629 11.9037 45.6064C12.1643 45.3499 12.3106 45.002 12.3106 44.6392V38.9988C12.3164 38.823 12.2865 38.6478 12.2227 38.4835C12.159 38.3191 12.0626 38.1689 11.9393 38.0416C11.816 37.9143 11.6682 37.8124 11.5045 37.7419C11.3408 37.6714 11.1644 37.6337 10.9858 37.631L10.9213 37.5958Z" fill="#F97316"/>
</g>
<defs>
<clipPath id="clip0_4130_509">
<rect width="22" height="36" fill="white" transform="translate(0 10)"/>
</clipPath>
</defs>
</svg>
